<mxfile host="app.diagrams.net" modified="2022-05-19T07:41:09.623Z" agent="5.0 (Windows NT 10.0; Win64; x64) AppleWebKit/537.36 (KHTML, like Gecko) Chrome/101.0.4951.54 Safari/537.36" etag="xNIGFaFCuGj0X0irtaAw" version="18.0.3" type="github">
  <diagram id="7zmXwTvykQKbsH73KVMM" name="Page-1">
    <mxGraphModel dx="918" dy="431" grid="1" gridSize="10" guides="1" tooltips="1" connect="1" arrows="1" fold="1" page="1" pageScale="1" pageWidth="827" pageHeight="1169" background="#FFFFFF" math="0" shadow="0">
      <root>
        <mxCell id="0" />
        <mxCell id="1" parent="0" />
        <mxCell id="t7zaAxkabkpgHF0Mw0dd-1" value="인터넷 쇼핑몰 시스템" style="shape=rect;html=1;verticalAlign=top;fontStyle=1;whiteSpace=wrap;align=center;" vertex="1" parent="1">
          <mxGeometry x="140" y="80" width="590" height="400" as="geometry" />
        </mxCell>
        <mxCell id="t7zaAxkabkpgHF0Mw0dd-2" value="고객" style="shape=umlActor;html=1;verticalLabelPosition=bottom;verticalAlign=top;align=center;" vertex="1" parent="1">
          <mxGeometry x="60" y="130" width="30" height="60" as="geometry" />
        </mxCell>
        <mxCell id="t7zaAxkabkpgHF0Mw0dd-3" value="회원" style="shape=umlActor;html=1;verticalLabelPosition=bottom;verticalAlign=top;align=center;" vertex="1" parent="1">
          <mxGeometry x="60" y="280" width="30" height="60" as="geometry" />
        </mxCell>
        <mxCell id="t7zaAxkabkpgHF0Mw0dd-4" value="회원가입" style="ellipse;whiteSpace=wrap;html=1;" vertex="1" parent="1">
          <mxGeometry x="170" y="110" width="100" height="30" as="geometry" />
        </mxCell>
        <mxCell id="t7zaAxkabkpgHF0Mw0dd-5" value="관리자" style="shape=umlActor;html=1;verticalLabelPosition=bottom;verticalAlign=top;align=center;" vertex="1" parent="1">
          <mxGeometry x="760" y="230" width="30" height="60" as="geometry" />
        </mxCell>
        <mxCell id="t7zaAxkabkpgHF0Mw0dd-6" value="상품목록조회" style="ellipse;whiteSpace=wrap;html=1;" vertex="1" parent="1">
          <mxGeometry x="170" y="145" width="100" height="30" as="geometry" />
        </mxCell>
        <mxCell id="t7zaAxkabkpgHF0Mw0dd-7" value="상품검색" style="ellipse;whiteSpace=wrap;html=1;" vertex="1" parent="1">
          <mxGeometry x="170" y="180" width="100" height="30" as="geometry" />
        </mxCell>
        <mxCell id="t7zaAxkabkpgHF0Mw0dd-8" value="상품상세조회" style="ellipse;whiteSpace=wrap;html=1;" vertex="1" parent="1">
          <mxGeometry x="330" y="150" width="100" height="40" as="geometry" />
        </mxCell>
        <mxCell id="t7zaAxkabkpgHF0Mw0dd-10" value="&amp;lt;&amp;lt;extend&amp;gt;&amp;gt;" style="edgeStyle=none;html=1;startArrow=open;endArrow=none;startSize=12;verticalAlign=bottom;dashed=1;labelBackgroundColor=none;rounded=0;" edge="1" parent="1" source="t7zaAxkabkpgHF0Mw0dd-6" target="t7zaAxkabkpgHF0Mw0dd-8">
          <mxGeometry width="160" relative="1" as="geometry">
            <mxPoint x="330" y="260" as="sourcePoint" />
            <mxPoint x="490" y="260" as="targetPoint" />
          </mxGeometry>
        </mxCell>
        <mxCell id="t7zaAxkabkpgHF0Mw0dd-11" value="&amp;lt;&amp;lt;extend&amp;gt;&amp;gt;" style="edgeStyle=none;html=1;startArrow=open;endArrow=none;startSize=12;verticalAlign=bottom;dashed=1;labelBackgroundColor=none;rounded=0;entryX=0;entryY=1;entryDx=0;entryDy=0;" edge="1" parent="1" source="t7zaAxkabkpgHF0Mw0dd-7" target="t7zaAxkabkpgHF0Mw0dd-8">
          <mxGeometry width="160" relative="1" as="geometry">
            <mxPoint x="330" y="260" as="sourcePoint" />
            <mxPoint x="490" y="260" as="targetPoint" />
          </mxGeometry>
        </mxCell>
        <mxCell id="t7zaAxkabkpgHF0Mw0dd-12" value="" style="endArrow=none;html=1;rounded=0;entryX=0.078;entryY=0.761;entryDx=0;entryDy=0;entryPerimeter=0;" edge="1" parent="1" source="t7zaAxkabkpgHF0Mw0dd-2" target="t7zaAxkabkpgHF0Mw0dd-4">
          <mxGeometry width="50" height="50" relative="1" as="geometry">
            <mxPoint x="380" y="280" as="sourcePoint" />
            <mxPoint x="430" y="230" as="targetPoint" />
          </mxGeometry>
        </mxCell>
        <mxCell id="t7zaAxkabkpgHF0Mw0dd-13" value="" style="endArrow=none;html=1;rounded=0;entryX=0;entryY=0.5;entryDx=0;entryDy=0;" edge="1" parent="1" target="t7zaAxkabkpgHF0Mw0dd-6">
          <mxGeometry width="50" height="50" relative="1" as="geometry">
            <mxPoint x="90" y="160" as="sourcePoint" />
            <mxPoint x="187.79999999999995" y="142.83000000000004" as="targetPoint" />
          </mxGeometry>
        </mxCell>
        <mxCell id="t7zaAxkabkpgHF0Mw0dd-14" value="" style="endArrow=none;html=1;rounded=0;entryX=0;entryY=0.5;entryDx=0;entryDy=0;" edge="1" parent="1" source="t7zaAxkabkpgHF0Mw0dd-2" target="t7zaAxkabkpgHF0Mw0dd-7">
          <mxGeometry width="50" height="50" relative="1" as="geometry">
            <mxPoint x="110" y="176.0355058365759" as="sourcePoint" />
            <mxPoint x="197.79999999999995" y="152.83000000000004" as="targetPoint" />
          </mxGeometry>
        </mxCell>
        <mxCell id="t7zaAxkabkpgHF0Mw0dd-15" value="장바구니담기" style="ellipse;whiteSpace=wrap;html=1;" vertex="1" parent="1">
          <mxGeometry x="170" y="240" width="100" height="30" as="geometry" />
        </mxCell>
        <mxCell id="t7zaAxkabkpgHF0Mw0dd-16" value="장바구니삭제" style="ellipse;whiteSpace=wrap;html=1;" vertex="1" parent="1">
          <mxGeometry x="170" y="280" width="100" height="30" as="geometry" />
        </mxCell>
        <mxCell id="t7zaAxkabkpgHF0Mw0dd-17" value="상품주문" style="ellipse;whiteSpace=wrap;html=1;" vertex="1" parent="1">
          <mxGeometry x="170" y="320" width="100" height="30" as="geometry" />
        </mxCell>
        <mxCell id="t7zaAxkabkpgHF0Mw0dd-18" value="주문결제" style="ellipse;whiteSpace=wrap;html=1;" vertex="1" parent="1">
          <mxGeometry x="170" y="360" width="100" height="30" as="geometry" />
        </mxCell>
        <mxCell id="t7zaAxkabkpgHF0Mw0dd-19" value="사용자인증" style="ellipse;whiteSpace=wrap;html=1;" vertex="1" parent="1">
          <mxGeometry x="340" y="330" width="110" height="40" as="geometry" />
        </mxCell>
        <mxCell id="t7zaAxkabkpgHF0Mw0dd-20" value="&amp;lt;&amp;lt;include&amp;gt;&amp;gt;" style="edgeStyle=none;html=1;endArrow=open;verticalAlign=bottom;dashed=1;labelBackgroundColor=none;rounded=0;" edge="1" parent="1">
          <mxGeometry width="160" relative="1" as="geometry">
            <mxPoint x="270" y="300" as="sourcePoint" />
            <mxPoint x="340" y="350" as="targetPoint" />
          </mxGeometry>
        </mxCell>
        <mxCell id="t7zaAxkabkpgHF0Mw0dd-23" value="&amp;lt;&amp;lt;include&amp;gt;&amp;gt;" style="edgeStyle=none;html=1;endArrow=open;verticalAlign=bottom;dashed=1;labelBackgroundColor=none;rounded=0;" edge="1" parent="1">
          <mxGeometry width="160" relative="1" as="geometry">
            <mxPoint x="270" y="334.58" as="sourcePoint" />
            <mxPoint x="340" y="335" as="targetPoint" />
          </mxGeometry>
        </mxCell>
        <mxCell id="t7zaAxkabkpgHF0Mw0dd-24" value="&amp;lt;&amp;lt;include&amp;gt;&amp;gt;" style="edgeStyle=none;html=1;endArrow=open;verticalAlign=bottom;dashed=1;labelBackgroundColor=none;rounded=0;entryX=0.102;entryY=0.821;entryDx=0;entryDy=0;entryPerimeter=0;" edge="1" parent="1" target="t7zaAxkabkpgHF0Mw0dd-19">
          <mxGeometry width="160" relative="1" as="geometry">
            <mxPoint x="270" y="374.58" as="sourcePoint" />
            <mxPoint x="430" y="374.58" as="targetPoint" />
          </mxGeometry>
        </mxCell>
        <mxCell id="t7zaAxkabkpgHF0Mw0dd-25" value="&amp;lt;&amp;lt;include&amp;gt;&amp;gt;" style="edgeStyle=none;html=1;endArrow=open;verticalAlign=bottom;dashed=1;labelBackgroundColor=none;rounded=0;entryX=0;entryY=0.5;entryDx=0;entryDy=0;" edge="1" parent="1" target="t7zaAxkabkpgHF0Mw0dd-19">
          <mxGeometry width="160" relative="1" as="geometry">
            <mxPoint x="270" y="259.58" as="sourcePoint" />
            <mxPoint x="430" y="259.58" as="targetPoint" />
          </mxGeometry>
        </mxCell>
        <mxCell id="t7zaAxkabkpgHF0Mw0dd-26" value="상품관리" style="ellipse;whiteSpace=wrap;html=1;" vertex="1" parent="1">
          <mxGeometry x="530" y="160" width="90" height="40" as="geometry" />
        </mxCell>
        <mxCell id="t7zaAxkabkpgHF0Mw0dd-27" value="회원관리" style="ellipse;whiteSpace=wrap;html=1;" vertex="1" parent="1">
          <mxGeometry x="540" y="310" width="90" height="40" as="geometry" />
        </mxCell>
        <mxCell id="t7zaAxkabkpgHF0Mw0dd-28" value="" style="endArrow=none;html=1;rounded=0;entryX=0;entryY=0.5;entryDx=0;entryDy=0;" edge="1" parent="1" target="t7zaAxkabkpgHF0Mw0dd-15">
          <mxGeometry width="50" height="50" relative="1" as="geometry">
            <mxPoint x="90" y="310" as="sourcePoint" />
            <mxPoint x="430" y="230" as="targetPoint" />
          </mxGeometry>
        </mxCell>
        <mxCell id="t7zaAxkabkpgHF0Mw0dd-29" value="" style="endArrow=none;html=1;rounded=0;exitX=1;exitY=0.3333333333333333;exitDx=0;exitDy=0;exitPerimeter=0;entryX=0;entryY=0.5;entryDx=0;entryDy=0;" edge="1" parent="1" target="t7zaAxkabkpgHF0Mw0dd-16">
          <mxGeometry width="50" height="50" relative="1" as="geometry">
            <mxPoint x="90" y="315" as="sourcePoint" />
            <mxPoint x="170" y="270" as="targetPoint" />
          </mxGeometry>
        </mxCell>
        <mxCell id="t7zaAxkabkpgHF0Mw0dd-30" value="" style="endArrow=none;html=1;rounded=0;entryX=0;entryY=0.5;entryDx=0;entryDy=0;" edge="1" parent="1" source="t7zaAxkabkpgHF0Mw0dd-3" target="t7zaAxkabkpgHF0Mw0dd-17">
          <mxGeometry width="50" height="50" relative="1" as="geometry">
            <mxPoint x="100" y="325" as="sourcePoint" />
            <mxPoint x="180" y="280" as="targetPoint" />
          </mxGeometry>
        </mxCell>
        <mxCell id="t7zaAxkabkpgHF0Mw0dd-31" value="" style="endArrow=none;html=1;rounded=0;entryX=0;entryY=0.5;entryDx=0;entryDy=0;" edge="1" parent="1" target="t7zaAxkabkpgHF0Mw0dd-18">
          <mxGeometry width="50" height="50" relative="1" as="geometry">
            <mxPoint x="90" y="320" as="sourcePoint" />
            <mxPoint x="180" y="285" as="targetPoint" />
          </mxGeometry>
        </mxCell>
        <mxCell id="t7zaAxkabkpgHF0Mw0dd-33" value="회원탈퇴" style="ellipse;whiteSpace=wrap;html=1;" vertex="1" parent="1">
          <mxGeometry x="480" y="380" width="90" height="40" as="geometry" />
        </mxCell>
        <mxCell id="t7zaAxkabkpgHF0Mw0dd-34" value="회원정보수정" style="ellipse;whiteSpace=wrap;html=1;" vertex="1" parent="1">
          <mxGeometry x="600" y="380" width="90" height="40" as="geometry" />
        </mxCell>
        <mxCell id="t7zaAxkabkpgHF0Mw0dd-37" value="&amp;lt;&amp;lt;include&amp;gt;&amp;gt;" style="edgeStyle=none;html=1;endArrow=open;verticalAlign=bottom;dashed=1;labelBackgroundColor=none;rounded=0;" edge="1" parent="1" source="t7zaAxkabkpgHF0Mw0dd-26" target="t7zaAxkabkpgHF0Mw0dd-19">
          <mxGeometry width="160" relative="1" as="geometry">
            <mxPoint x="330" y="260" as="sourcePoint" />
            <mxPoint x="490" y="260" as="targetPoint" />
          </mxGeometry>
        </mxCell>
        <mxCell id="t7zaAxkabkpgHF0Mw0dd-38" value="상품삭제" style="ellipse;whiteSpace=wrap;html=1;" vertex="1" parent="1">
          <mxGeometry x="630" y="100" width="100" height="40" as="geometry" />
        </mxCell>
        <mxCell id="t7zaAxkabkpgHF0Mw0dd-40" value="상품수정" style="ellipse;whiteSpace=wrap;html=1;" vertex="1" parent="1">
          <mxGeometry x="520" y="100" width="100" height="40" as="geometry" />
        </mxCell>
        <mxCell id="t7zaAxkabkpgHF0Mw0dd-41" value="상품등록" style="ellipse;whiteSpace=wrap;html=1;" vertex="1" parent="1">
          <mxGeometry x="420" y="120" width="100" height="40" as="geometry" />
        </mxCell>
        <mxCell id="t7zaAxkabkpgHF0Mw0dd-46" value="" style="edgeStyle=none;html=1;endSize=12;endArrow=block;endFill=0;rounded=0;exitX=0.095;exitY=0.842;exitDx=0;exitDy=0;exitPerimeter=0;entryX=1;entryY=0.5;entryDx=0;entryDy=0;" edge="1" parent="1" source="t7zaAxkabkpgHF0Mw0dd-38" target="t7zaAxkabkpgHF0Mw0dd-26">
          <mxGeometry width="160" relative="1" as="geometry">
            <mxPoint x="330" y="260" as="sourcePoint" />
            <mxPoint x="490" y="260" as="targetPoint" />
          </mxGeometry>
        </mxCell>
        <mxCell id="t7zaAxkabkpgHF0Mw0dd-47" value="" style="edgeStyle=none;html=1;endSize=12;endArrow=block;endFill=0;rounded=0;entryX=0.5;entryY=0;entryDx=0;entryDy=0;" edge="1" parent="1" source="t7zaAxkabkpgHF0Mw0dd-40" target="t7zaAxkabkpgHF0Mw0dd-26">
          <mxGeometry width="160" relative="1" as="geometry">
            <mxPoint x="629.5" y="153.68000000000006" as="sourcePoint" />
            <mxPoint x="590.0000000000027" y="160" as="targetPoint" />
          </mxGeometry>
        </mxCell>
        <mxCell id="t7zaAxkabkpgHF0Mw0dd-48" value="" style="edgeStyle=none;html=1;endSize=12;endArrow=block;endFill=0;rounded=0;exitX=0.378;exitY=0.967;exitDx=0;exitDy=0;exitPerimeter=0;" edge="1" parent="1" source="t7zaAxkabkpgHF0Mw0dd-41" target="t7zaAxkabkpgHF0Mw0dd-26">
          <mxGeometry width="160" relative="1" as="geometry">
            <mxPoint x="639.5" y="163.68000000000006" as="sourcePoint" />
            <mxPoint x="600.0000000000027" y="170" as="targetPoint" />
          </mxGeometry>
        </mxCell>
        <mxCell id="t7zaAxkabkpgHF0Mw0dd-49" value="" style="edgeStyle=none;html=1;endSize=12;endArrow=block;endFill=0;rounded=0;" edge="1" parent="1" source="t7zaAxkabkpgHF0Mw0dd-34" target="t7zaAxkabkpgHF0Mw0dd-27">
          <mxGeometry width="160" relative="1" as="geometry">
            <mxPoint x="649.5" y="173.68000000000006" as="sourcePoint" />
            <mxPoint x="610.0000000000027" y="180" as="targetPoint" />
          </mxGeometry>
        </mxCell>
        <mxCell id="t7zaAxkabkpgHF0Mw0dd-50" value="" style="edgeStyle=none;html=1;endSize=12;endArrow=block;endFill=0;rounded=0;exitX=1;exitY=0;exitDx=0;exitDy=0;entryX=0.356;entryY=0.988;entryDx=0;entryDy=0;entryPerimeter=0;" edge="1" parent="1" source="t7zaAxkabkpgHF0Mw0dd-33" target="t7zaAxkabkpgHF0Mw0dd-27">
          <mxGeometry width="160" relative="1" as="geometry">
            <mxPoint x="639.056735293686" y="391.29732409451617" as="sourcePoint" />
            <mxPoint x="611.0197897416476" y="358.68975469858924" as="targetPoint" />
          </mxGeometry>
        </mxCell>
        <mxCell id="t7zaAxkabkpgHF0Mw0dd-51" value="온라인입금처리" style="ellipse;whiteSpace=wrap;html=1;" vertex="1" parent="1">
          <mxGeometry x="540" y="250" width="100" height="40" as="geometry" />
        </mxCell>
        <mxCell id="t7zaAxkabkpgHF0Mw0dd-52" value="&amp;lt;&amp;lt;include&amp;gt;&amp;gt;" style="edgeStyle=none;html=1;endArrow=open;verticalAlign=bottom;dashed=1;labelBackgroundColor=none;rounded=0;exitX=0;exitY=0.5;exitDx=0;exitDy=0;" edge="1" parent="1" source="t7zaAxkabkpgHF0Mw0dd-51" target="t7zaAxkabkpgHF0Mw0dd-19">
          <mxGeometry width="160" relative="1" as="geometry">
            <mxPoint x="330" y="260" as="sourcePoint" />
            <mxPoint x="490" y="260" as="targetPoint" />
          </mxGeometry>
        </mxCell>
        <mxCell id="t7zaAxkabkpgHF0Mw0dd-53" value="" style="endArrow=none;html=1;rounded=0;exitX=0.606;exitY=1.092;exitDx=0;exitDy=0;exitPerimeter=0;" edge="1" parent="1" source="t7zaAxkabkpgHF0Mw0dd-26">
          <mxGeometry width="50" height="50" relative="1" as="geometry">
            <mxPoint x="620" y="120" as="sourcePoint" />
            <mxPoint x="750" y="260" as="targetPoint" />
          </mxGeometry>
        </mxCell>
        <mxCell id="t7zaAxkabkpgHF0Mw0dd-54" value="" style="endArrow=none;html=1;rounded=0;" edge="1" parent="1" source="t7zaAxkabkpgHF0Mw0dd-51">
          <mxGeometry width="50" height="50" relative="1" as="geometry">
            <mxPoint x="630" y="130" as="sourcePoint" />
            <mxPoint x="750" y="270" as="targetPoint" />
          </mxGeometry>
        </mxCell>
        <mxCell id="t7zaAxkabkpgHF0Mw0dd-55" value="" style="endArrow=none;html=1;rounded=0;exitX=1;exitY=0.5;exitDx=0;exitDy=0;" edge="1" parent="1" source="t7zaAxkabkpgHF0Mw0dd-27">
          <mxGeometry width="50" height="50" relative="1" as="geometry">
            <mxPoint x="640" y="140" as="sourcePoint" />
            <mxPoint x="750" y="280" as="targetPoint" />
          </mxGeometry>
        </mxCell>
        <mxCell id="t7zaAxkabkpgHF0Mw0dd-56" value="" style="edgeStyle=none;html=1;endSize=12;endArrow=block;endFill=0;rounded=0;" edge="1" parent="1">
          <mxGeometry width="160" relative="1" as="geometry">
            <mxPoint x="75" y="280" as="sourcePoint" />
            <mxPoint x="75" y="210" as="targetPoint" />
          </mxGeometry>
        </mxCell>
      </root>
    </mxGraphModel>
  </diagram>
</mxfile>
